<mxfile host="drawio-plugin" agent="Mozilla/5.0 (Macintosh; Intel Mac OS X 10_15_7) AppleWebKit/537.36 (KHTML, like Gecko) Chrome/122.0.0.0 Safari/537.36" modified="2024-12-23T18:02:57.652Z" etag="wXh22cdzGzGd5vTTeBmU" version="22.1.22" type="embed">
  <diagram name="Page-1" id="92RJ4OFCEY1Zh97tm0ry">
    <mxGraphModel dx="1354" dy="1512" grid="1" gridSize="10" guides="1" tooltips="1" connect="1" arrows="1" fold="1" page="1" pageScale="1" pageWidth="1169" pageHeight="827" math="0" shadow="0">
      <root>
        <mxCell id="0" />
        <mxCell id="1" parent="0" />
        <mxCell id="40" value="" style="rounded=1;whiteSpace=wrap;html=1;" parent="1" vertex="1">
          <mxGeometry x="250" y="115" width="640" height="390" as="geometry" />
        </mxCell>
        <mxCell id="14" style="edgeStyle=orthogonalEdgeStyle;rounded=0;orthogonalLoop=1;jettySize=auto;html=1;exitX=0.5;exitY=1;exitDx=0;exitDy=0;strokeColor=#FF8000;" parent="1" source="Ff-utBMH50buQREXnOfn-1" target="Ff-utBMH50buQREXnOfn-2" edge="1">
          <mxGeometry relative="1" as="geometry" />
        </mxCell>
        <mxCell id="Ff-utBMH50buQREXnOfn-1" value="Akamai&amp;nbsp;&lt;div&gt;Datastream 2&lt;/div&gt;" style="rounded=1;whiteSpace=wrap;html=1;" parent="1" vertex="1">
          <mxGeometry x="490" y="-130" width="120" height="60" as="geometry" />
        </mxCell>
        <mxCell id="13" style="edgeStyle=orthogonalEdgeStyle;rounded=0;orthogonalLoop=1;jettySize=auto;html=1;exitX=0.5;exitY=1;exitDx=0;exitDy=0;strokeColor=#FF8000;" parent="1" source="Ff-utBMH50buQREXnOfn-2" target="Ff-utBMH50buQREXnOfn-3" edge="1">
          <mxGeometry relative="1" as="geometry" />
        </mxCell>
        <mxCell id="34" style="edgeStyle=orthogonalEdgeStyle;rounded=0;orthogonalLoop=1;jettySize=auto;html=1;entryX=0.5;entryY=0;entryDx=0;entryDy=0;strokeColor=#0000FF;" parent="1" source="Ff-utBMH50buQREXnOfn-2" target="30" edge="1">
          <mxGeometry relative="1" as="geometry" />
        </mxCell>
        <mxCell id="Ff-utBMH50buQREXnOfn-2" value="Proxy&lt;div&gt;(NGINX)&lt;/div&gt;" style="rounded=1;whiteSpace=wrap;html=1;" parent="1" vertex="1">
          <mxGeometry x="490" y="130" width="120" height="60" as="geometry" />
        </mxCell>
        <mxCell id="9" style="edgeStyle=orthogonalEdgeStyle;rounded=0;orthogonalLoop=1;jettySize=auto;html=1;exitX=0.5;exitY=1;exitDx=0;exitDy=0;entryX=0.5;entryY=0;entryDx=0;entryDy=0;strokeColor=#FF8000;" parent="1" source="Ff-utBMH50buQREXnOfn-3" target="Ff-utBMH50buQREXnOfn-4" edge="1">
          <mxGeometry relative="1" as="geometry" />
        </mxCell>
        <mxCell id="Ff-utBMH50buQREXnOfn-3" value="Inbound&lt;div&gt;(FluentD)&lt;/div&gt;" style="rounded=1;whiteSpace=wrap;html=1;" parent="1" vertex="1">
          <mxGeometry x="490" y="280" width="120" height="60" as="geometry" />
        </mxCell>
        <mxCell id="7" style="rounded=0;orthogonalLoop=1;jettySize=auto;html=1;exitX=0.5;exitY=1;exitDx=0;exitDy=0;strokeColor=#FF8000;" parent="1" source="Ff-utBMH50buQREXnOfn-4" target="Ff-utBMH50buQREXnOfn-6" edge="1">
          <mxGeometry relative="1" as="geometry">
            <Array as="points">
              <mxPoint x="550" y="530" />
            </Array>
          </mxGeometry>
        </mxCell>
        <mxCell id="12" style="edgeStyle=orthogonalEdgeStyle;rounded=0;orthogonalLoop=1;jettySize=auto;html=1;exitX=1;exitY=0.75;exitDx=0;exitDy=0;entryX=0;entryY=0.75;entryDx=0;entryDy=0;fontColor=#009900;strokeColor=#00CC66;" parent="1" source="Ff-utBMH50buQREXnOfn-4" target="Ff-utBMH50buQREXnOfn-5" edge="1">
          <mxGeometry relative="1" as="geometry" />
        </mxCell>
        <mxCell id="Ff-utBMH50buQREXnOfn-4" value="Queues&lt;div&gt;(Apache Kafka)&lt;/div&gt;" style="rounded=1;whiteSpace=wrap;html=1;" parent="1" vertex="1">
          <mxGeometry x="490" y="400" width="120" height="60" as="geometry" />
        </mxCell>
        <mxCell id="11" style="edgeStyle=orthogonalEdgeStyle;rounded=0;orthogonalLoop=1;jettySize=auto;html=1;exitX=0;exitY=0.25;exitDx=0;exitDy=0;entryX=1;entryY=0.25;entryDx=0;entryDy=0;fontColor=#009900;strokeColor=#00CC66;" parent="1" source="Ff-utBMH50buQREXnOfn-5" target="Ff-utBMH50buQREXnOfn-4" edge="1">
          <mxGeometry relative="1" as="geometry" />
        </mxCell>
        <mxCell id="Ff-utBMH50buQREXnOfn-5" value="Converter&lt;div&gt;(Java SpringBoot App)&lt;/div&gt;" style="rounded=1;whiteSpace=wrap;html=1;" parent="1" vertex="1">
          <mxGeometry x="740" y="400" width="120" height="60" as="geometry" />
        </mxCell>
        <mxCell id="Ff-utBMH50buQREXnOfn-6" value="S3-Compliant&lt;div&gt;Object Storage&lt;/div&gt;" style="rounded=1;whiteSpace=wrap;html=1;" parent="1" vertex="1">
          <mxGeometry x="490" y="530" width="120" height="60" as="geometry" />
        </mxCell>
        <mxCell id="15" value="https" style="text;html=1;align=center;verticalAlign=middle;resizable=0;points=[];autosize=1;strokeColor=none;fillColor=none;fontColor=#FF8000;" parent="1" vertex="1">
          <mxGeometry x="500" y="65" width="50" height="30" as="geometry" />
        </mxCell>
        <mxCell id="16" value="- Balance the traffic&lt;br&gt;- Authenticate&lt;br&gt;- Block invalid requests" style="text;html=1;align=left;verticalAlign=middle;resizable=0;points=[];autosize=1;strokeColor=none;fillColor=none;fontColor=#FF8000;" parent="1" vertex="1">
          <mxGeometry x="560" y="50" width="150" height="60" as="geometry" />
        </mxCell>
        <mxCell id="17" value="https" style="text;html=1;align=center;verticalAlign=middle;resizable=0;points=[];autosize=1;strokeColor=none;fillColor=none;fontColor=#FF8000;" parent="1" vertex="1">
          <mxGeometry x="500" y="230" width="50" height="30" as="geometry" />
        </mxCell>
        <mxCell id="18" value="- Proxy the ingestion" style="text;html=1;align=center;verticalAlign=middle;resizable=0;points=[];autosize=1;strokeColor=none;fillColor=none;fontColor=#FF8000;" parent="1" vertex="1">
          <mxGeometry x="550" y="230" width="130" height="30" as="geometry" />
        </mxCell>
        <mxCell id="19" value="Forward the ingestion to Kafka for temporary storage" style="text;html=1;align=center;verticalAlign=middle;resizable=0;points=[];autosize=1;strokeColor=none;fillColor=none;fontColor=#FF8000;" parent="1" vertex="1">
          <mxGeometry x="560" y="350" width="300" height="30" as="geometry" />
        </mxCell>
        <mxCell id="20" value="tcps" style="text;html=1;align=center;verticalAlign=middle;resizable=0;points=[];autosize=1;strokeColor=none;fillColor=none;fontColor=#FF8000;" parent="1" vertex="1">
          <mxGeometry x="500" y="350" width="50" height="30" as="geometry" />
        </mxCell>
        <mxCell id="21" value="Filter the ingestion" style="text;html=1;align=center;verticalAlign=middle;resizable=0;points=[];autosize=1;strokeColor=none;fillColor=none;fontColor=#009900;" parent="1" vertex="1">
          <mxGeometry x="615" y="420" width="120" height="30" as="geometry" />
        </mxCell>
        <mxCell id="22" value="Store only filtered logs" style="text;html=1;align=center;verticalAlign=middle;resizable=0;points=[];autosize=1;strokeColor=none;fillColor=none;fontColor=#009900;" parent="1" vertex="1">
          <mxGeometry x="605" y="380" width="140" height="30" as="geometry" />
        </mxCell>
        <mxCell id="23" value="Push the filtered logs&lt;br&gt;to final destination" style="text;html=1;align=center;verticalAlign=middle;resizable=0;points=[];autosize=1;strokeColor=none;fillColor=none;fontColor=#FF8000;" parent="1" vertex="1">
          <mxGeometry x="550" y="465" width="140" height="40" as="geometry" />
        </mxCell>
        <mxCell id="24" value="https" style="text;html=1;align=center;verticalAlign=middle;resizable=0;points=[];autosize=1;strokeColor=none;fillColor=none;fontColor=#FF8000;" parent="1" vertex="1">
          <mxGeometry x="500" y="470" width="50" height="30" as="geometry" />
        </mxCell>
        <mxCell id="28" style="edgeStyle=orthogonalEdgeStyle;rounded=0;orthogonalLoop=1;jettySize=auto;html=1;fontColor=#CC0000;strokeColor=#CC0000;" parent="1" source="25" edge="1">
          <mxGeometry relative="1" as="geometry">
            <mxPoint x="550" y="590" as="targetPoint" />
          </mxGeometry>
        </mxCell>
        <mxCell id="41" style="edgeStyle=orthogonalEdgeStyle;rounded=0;orthogonalLoop=1;jettySize=auto;html=1;entryX=0;entryY=0.5;entryDx=0;entryDy=0;strokeColor=#0000FF;" parent="1" source="25" target="37" edge="1">
          <mxGeometry relative="1" as="geometry">
            <Array as="points">
              <mxPoint x="450" y="680" />
              <mxPoint x="450" y="10" />
            </Array>
          </mxGeometry>
        </mxCell>
        <mxCell id="25" value="Actor" style="shape=umlActor;verticalLabelPosition=bottom;verticalAlign=top;html=1;" parent="1" vertex="1">
          <mxGeometry x="535" y="650" width="30" height="60" as="geometry" />
        </mxCell>
        <mxCell id="26" value="Fetch the filtered logs with S3 CLI" style="text;html=1;align=center;verticalAlign=middle;resizable=0;points=[];autosize=1;strokeColor=none;fillColor=none;fontColor=#CC0000;" parent="1" vertex="1">
          <mxGeometry x="550" y="610" width="200" height="30" as="geometry" />
        </mxCell>
        <mxCell id="29" value="https" style="text;html=1;align=center;verticalAlign=middle;resizable=0;points=[];autosize=1;strokeColor=none;fillColor=none;fontColor=#CC0000;" parent="1" vertex="1">
          <mxGeometry x="500" y="610" width="50" height="30" as="geometry" />
        </mxCell>
        <mxCell id="31" style="edgeStyle=orthogonalEdgeStyle;rounded=0;orthogonalLoop=1;jettySize=auto;html=1;entryX=0;entryY=0.5;entryDx=0;entryDy=0;strokeColor=#0000FF;" parent="1" source="30" target="Ff-utBMH50buQREXnOfn-4" edge="1">
          <mxGeometry relative="1" as="geometry" />
        </mxCell>
        <mxCell id="30" value="&lt;div&gt;Queues UI&amp;nbsp;&lt;/div&gt;&lt;div&gt;(Apache Kafka UI)&lt;/div&gt;" style="rounded=1;whiteSpace=wrap;html=1;" parent="1" vertex="1">
          <mxGeometry x="280" y="400" width="120" height="60" as="geometry" />
        </mxCell>
        <mxCell id="33" value="https" style="text;html=1;align=center;verticalAlign=middle;resizable=0;points=[];autosize=1;strokeColor=none;fillColor=none;fontColor=#0000FF;" parent="1" vertex="1">
          <mxGeometry x="400" y="65" width="50" height="30" as="geometry" />
        </mxCell>
        <mxCell id="35" value="https" style="text;html=1;align=center;verticalAlign=middle;resizable=0;points=[];autosize=1;strokeColor=none;fillColor=none;fontColor=#0000FF;" parent="1" vertex="1">
          <mxGeometry x="280" y="278" width="50" height="30" as="geometry" />
        </mxCell>
        <mxCell id="36" value="- Proxy the UI" style="text;html=1;align=center;verticalAlign=middle;resizable=0;points=[];autosize=1;strokeColor=none;fillColor=none;fontColor=#0000FF;" parent="1" vertex="1">
          <mxGeometry x="340" y="280" width="100" height="30" as="geometry" />
        </mxCell>
        <mxCell id="37" value="Load Balancer" style="rounded=1;whiteSpace=wrap;html=1;" parent="1" vertex="1">
          <mxGeometry x="490" y="-20" width="120" height="60" as="geometry" />
        </mxCell>
        <mxCell id="38" value="- Push All Akamai raw logs" style="text;html=1;align=left;verticalAlign=middle;resizable=0;points=[];autosize=1;strokeColor=none;fillColor=none;fontColor=#FF8000;" parent="1" vertex="1">
          <mxGeometry x="560" y="-60" width="160" height="30" as="geometry" />
        </mxCell>
        <mxCell id="39" value="https" style="text;html=1;align=center;verticalAlign=middle;resizable=0;points=[];autosize=1;strokeColor=none;fillColor=none;fontColor=#FF8000;" parent="1" vertex="1">
          <mxGeometry x="500" y="-60" width="50" height="30" as="geometry" />
        </mxCell>
      </root>
    </mxGraphModel>
  </diagram>
</mxfile>
